<svg id="Camada_1" data-name="Camada 1" xmlns="http://www.w3.org/2000/svg" viewBox="0 0 6768.17 993.45"><defs><style>.cls-1{fill:#1d1d1b;}</style></defs><path class="cls-1" d="M1837.83,3442.4v739.8H1619.06V3442.4Z" transform="translate(-1619.06 -3202.49)"/><path class="cls-1" d="M2619.9,3442.4v739.8H2424.38L2172.85,3788V4182.2H1954.08V3442.4H2149.6l252.59,394.21V3442.4Z" transform="translate(-1619.06 -3202.49)"/><path class="cls-1" d="M3444.26,3754.17v428h-96.18l-24.31-90.89c-52.84,65.52-130,104.63-233.56,104.63-221.94,0-380.47-164.87-380.47-383.64,0-217.71,158.53-382.59,380.47-382.59,133.16,0,243.08,59.19,310.72,154.31l-181.79,119.42c-27.47-38.05-71.86-62.35-128.93-62.35-101.46,0-162.76,75-162.76,171.21,0,97.23,61.3,180.72,162.76,180.72,72.92,0,122.59-28.53,145.84-85.6H3071.18V3754.17Z" transform="translate(-1619.06 -3202.49)"/><path class="cls-1" d="M4044.55,3983.51V4182.2H3549.94V3442.4h218.77v541.11Z" transform="translate(-1619.06 -3202.49)"/><path class="cls-1" d="M4632.17,4002.53V4182.2H4129.1V3442.4h492.5v180.72H4347.87v100.4h239.91v171.21H4347.87v107.8ZM4430.31,3360l-49.68-68.69L4331,3360H4173.49l123.65-157.47h167L4587.78,3360Z" transform="translate(-1619.06 -3202.49)"/><path class="cls-1" d="M5287.43,3956c0,128.94-109.91,239.91-290.64,239.91-134.22,0-281.12-50.73-311.77-198.69l187.06-58.13c4.23,38.05,46.5,74,115.2,74,57.07,0,82.44-25.36,82.44-53.9,0-44.39-56-48.61-130-66.58-142.67-33.82-225.11-93-225.11-227.23,0-141.61,118.37-235.68,281.12-235.68,130,0,244.14,66.59,271.62,194.47l-186,45.44c-8.45-29.59-33.82-57.07-83.49-57.07-42.28,0-74,18-74,51.79,0,42.27,64.47,48.61,121.54,64.47C5226.13,3778.48,5287.43,3838.72,5287.43,3956Z" transform="translate(-1619.06 -3202.49)"/><path class="cls-1" d="M6160.4,4002.53V4182.2H5657.34V3442.4h492.5v180.72H5876.11v100.4H6116v171.21h-239.9v107.8Z" transform="translate(-1619.06 -3202.49)"/><path class="cls-1" d="M7085.16,3641.09H6911.84V4182.2H6693.07V3641.09H6519.74V3442.4h565.42Z" transform="translate(-1619.06 -3202.49)"/><path class="cls-1" d="M7559.71,4063.83H7333.54l-32.76,118.37H7064l247.31-739.8H7581.9l247.31,739.8H7592.47Zm-43.33-156.41-69.76-252.59-69.75,252.59Z" transform="translate(-1619.06 -3202.49)"/><path class="cls-1" d="M8387.24,3983.51V4182.2H7892.62V3442.4H8111.4v541.11Z" transform="translate(-1619.06 -3202.49)"/></svg>